<svg width="76" height="24" viewBox="0 0 76 24" fill="none" xmlns="http://www.w3.org/2000/svg">
<g clip-path="url(#clip0_308_20371)">
<path d="M71.5324 0H3.71759C1.73346 0 0.125 1.60846 0.125 3.59259V20.1888C0.125 22.173 1.73346 23.7814 3.71759 23.7814H71.5324C73.5165 23.7814 75.125 22.173 75.125 20.1888V3.59259C75.125 1.60846 73.5165 0 71.5324 0Z" fill="black"/>
<path d="M26.7895 2.36084V10.1719C25.8755 9.56916 24.8049 9.2474 23.7101 9.24641C22.2242 9.24642 20.7991 9.83671 19.7484 10.8874C18.6977 11.9381 18.1074 13.3632 18.1074 14.8491C18.1074 15.5848 18.2523 16.3134 18.5339 16.9932C18.8154 17.6729 19.2281 18.2906 19.7483 18.8109C20.2686 19.3312 20.8862 19.7439 21.566 20.0254C22.2458 20.307 22.9743 20.452 23.7101 20.452C24.8051 20.4506 25.8757 20.1283 26.7895 19.525V20.452H29.484V2.36084H26.7895ZM23.7101 11.8124C24.1089 11.8124 24.5037 11.891 24.8722 12.0436C25.2406 12.1962 25.5753 12.4199 25.8573 12.7018C26.1393 12.9838 26.363 13.3186 26.5156 13.687C26.6682 14.0554 26.7467 14.4503 26.7467 14.8491C26.7467 15.2478 26.6682 15.6427 26.5156 16.0111C26.363 16.3796 26.1393 16.7143 25.8573 16.9963C25.5753 17.2783 25.2406 17.502 24.8722 17.6546C24.5037 17.8072 24.1089 17.8857 23.7101 17.8857C23.3113 17.8857 22.9164 17.8072 22.548 17.6546C22.1796 17.502 21.8448 17.2783 21.5629 16.9963C21.2809 16.7143 21.0572 16.3796 20.9046 16.0111C20.752 15.6427 20.6735 15.2478 20.6735 14.8491C20.6735 14.4503 20.752 14.0554 20.9046 13.687C21.0572 13.3186 21.2809 12.9838 21.5629 12.7018C21.8448 12.4199 22.1796 12.1962 22.548 12.0436C22.9164 11.891 23.3113 11.8124 23.7101 11.8124Z" fill="white"/>
<path d="M33.4341 4.03027C32.9806 4.03033 32.5457 4.2105 32.225 4.53118C31.9044 4.85185 31.7242 5.28676 31.7241 5.74026C31.7241 6.19381 31.9043 6.62878 32.2249 6.9495C32.5456 7.27023 32.9806 7.45043 33.4341 7.45049C33.6587 7.45049 33.8811 7.40626 34.0886 7.32031C34.2961 7.23437 34.4846 7.10839 34.6434 6.94958C34.8022 6.79077 34.9282 6.60224 35.0142 6.39475C35.1001 6.18725 35.1443 5.96485 35.1443 5.74026C35.1443 5.28672 34.9641 4.85178 34.6433 4.53109C34.3226 4.21041 33.8877 4.03026 33.4341 4.03027ZM32.0869 10.2238V20.4521H34.7813V10.2238H32.0869Z" fill="white"/>
<path fill-rule="evenodd" clip-rule="evenodd" d="M70.5633 10.8501L69.1305 12.4967C67.5998 11.2008 65.9531 11.864 66.2635 13.0122C66.5739 14.1605 71.9146 13.7647 70.9054 17.9711C69.8962 22.1775 63.9374 20.5955 62.8862 19.1686L64.5542 17.2868C66.3638 18.7622 68.4165 18.6159 68.3172 17.1382C68.2178 15.6605 65.5609 16.601 63.9976 14.5149C62.4342 12.4287 64.3124 7.35977 70.5633 10.8501Z" fill="white"/>
<path d="M10.4513 9.24658C8.96538 9.2466 7.54033 9.83688 6.48963 10.8876C5.43893 11.9383 4.84865 13.3633 4.84863 14.8492C4.84861 15.585 4.99351 16.3136 5.27506 16.9934C5.55661 17.6731 5.9693 18.2908 6.48955 18.8111C7.00981 19.3313 7.62745 19.744 8.30721 20.0256C8.98696 20.3072 9.71553 20.4521 10.4513 20.4521C11.5463 20.4507 12.6169 20.1285 13.5307 19.5252V20.4521H16.2252V9.5462L14.3309 10.809C13.2878 9.80694 11.8977 9.24709 10.4513 9.24658ZM10.4513 11.8126C10.8501 11.8126 11.2449 11.8912 11.6134 12.0438C11.9818 12.1964 12.3165 12.42 12.5985 12.702C12.8805 12.984 13.1042 13.3188 13.2568 13.6872C13.4094 14.0556 13.4879 14.4505 13.4879 14.8492C13.4879 15.248 13.4094 15.6429 13.2568 16.0113C13.1042 16.3797 12.8805 16.7145 12.5985 16.9965C12.3165 17.2785 11.9818 17.5021 11.6134 17.6547C11.2449 17.8073 10.8501 17.8859 10.4513 17.8859C10.0525 17.8859 9.65765 17.8073 9.28922 17.6547C8.9208 17.5021 8.58604 17.2785 8.30407 16.9965C8.02209 16.7145 7.79841 16.3797 7.64581 16.0113C7.49321 15.6429 7.41466 15.248 7.41467 14.8492C7.41466 14.4505 7.49321 14.0556 7.64581 13.6872C7.79841 13.3188 8.02209 12.984 8.30407 12.702C8.58604 12.42 8.9208 12.1964 9.28922 12.0438C9.65765 11.8912 10.0525 11.8126 10.4513 11.8126Z" fill="white"/>
<path d="M45.3457 2.36084V10.1719C44.4317 9.56916 43.3611 9.2474 42.2662 9.24641C40.7803 9.24642 39.3553 9.83671 38.3046 10.8874C37.2539 11.9381 36.6636 13.3632 36.6636 14.8491C36.6636 15.5848 36.8085 16.3134 37.09 16.9932C37.3716 17.6729 37.7842 18.2906 38.3045 18.8109C38.8248 19.3312 39.4424 19.7439 40.1221 20.0254C40.8019 20.307 41.5305 20.452 42.2662 20.452C43.3612 20.4506 44.4318 20.1283 45.3457 19.525V20.452H48.0401V2.36084H45.3457ZM42.2662 11.8124C42.665 11.8124 43.0599 11.891 43.4283 12.0436C43.7967 12.1962 44.1315 12.4199 44.4135 12.7018C44.6954 12.9838 44.9191 13.3186 45.0717 13.687C45.2243 14.0554 45.3029 14.4503 45.3029 14.8491C45.3029 15.2478 45.2243 15.6427 45.0717 16.0111C44.9191 16.3796 44.6954 16.7143 44.4135 16.9963C44.1315 17.2783 43.7967 17.502 43.4283 17.6546C43.0599 17.8072 42.665 17.8857 42.2662 17.8857C41.8675 17.8857 41.4726 17.8072 41.1042 17.6546C40.7357 17.502 40.401 17.2783 40.119 16.9963C39.837 16.7143 39.6134 16.3796 39.4608 16.0111C39.3081 15.6427 39.2296 15.2478 39.2296 14.8491C39.2296 14.4503 39.3081 14.0554 39.4608 13.687C39.6134 13.3186 39.837 12.9838 40.119 12.7018C40.401 12.4199 40.7357 12.1962 41.1042 12.0436C41.4726 11.891 41.8675 11.8124 42.2662 11.8124Z" fill="white"/>
<path d="M55.5245 9.24658C54.0386 9.2466 52.6136 9.83688 51.5629 10.8876C50.5122 11.9383 49.9219 13.3633 49.9219 14.8492C49.9219 15.585 50.0668 16.3136 50.3483 16.9934C50.6299 17.6731 51.0425 18.2908 51.5628 18.8111C52.083 19.3313 52.7007 19.744 53.3804 20.0256C54.0602 20.3072 54.7888 20.4521 55.5245 20.4521C56.6195 20.4507 57.6901 20.1285 58.604 19.5252V20.4521H61.2984V9.5462L59.4041 10.809C58.3611 9.80694 56.9709 9.24709 55.5245 9.24658ZM55.5245 11.8126C55.9233 11.8126 56.3182 11.8912 56.6866 12.0438C57.055 12.1964 57.3898 12.42 57.6718 12.702C57.9537 12.984 58.1774 13.3188 58.33 13.6872C58.4826 14.0556 58.5612 14.4505 58.5612 14.8492C58.5612 15.248 58.4826 15.6429 58.33 16.0113C58.1774 16.3797 57.9537 16.7145 57.6718 16.9965C57.3898 17.2785 57.055 17.5021 56.6866 17.6547C56.3182 17.8073 55.9233 17.8859 55.5245 17.8859C55.1258 17.8859 54.7309 17.8073 54.3625 17.6547C53.994 17.5021 53.6593 17.2785 53.3773 16.9965C53.0953 16.7145 52.8717 16.3797 52.719 16.0113C52.5664 15.6429 52.4879 15.248 52.4879 14.8492C52.4879 14.4505 52.5664 14.0556 52.719 13.6872C52.8717 13.3188 53.0953 12.984 53.3773 12.702C53.6593 12.42 53.994 12.1964 54.3625 12.0438C54.7309 11.8912 55.1258 11.8126 55.5245 11.8126Z" fill="white"/>
</g>
<defs>
<clipPath id="clip0_308_20371">
<rect width="75" height="23.7814" fill="white" transform="translate(0.125)"/>
</clipPath>
</defs>
</svg>
