<svg width="21" height="25" viewBox="0 0 21 25" fill="none" xmlns="http://www.w3.org/2000/svg">
<g clip-path="url(#clip0_345_21286)">
<path d="M8.32792 10.1581C7.99458 10.187 7.68419 10.3399 7.45805 10.5865C7.23189 10.8331 7.10645 11.1555 7.10645 11.4901C7.10645 11.8247 7.23189 12.1471 7.45805 12.3938C7.68419 12.6404 7.99458 12.7932 8.32792 12.8221C8.4958 12.8152 8.66066 12.7752 8.81307 12.7045C8.96548 12.6337 9.10245 12.5337 9.21614 12.4099C9.32982 12.2862 9.418 12.1413 9.47562 11.9835C9.53324 11.8256 9.55917 11.658 9.55192 11.4901C9.56011 11.322 9.53483 11.154 9.47756 10.9958C9.42029 10.8375 9.33217 10.6922 9.2183 10.5683C9.10444 10.4444 8.9671 10.3443 8.81425 10.2739C8.66141 10.2035 8.4961 10.1641 8.32792 10.1581ZM12.7079 10.1581C12.4396 10.1354 12.1707 10.1941 11.9364 10.3268C11.702 10.4594 11.5132 10.6597 11.3946 10.9014C11.276 11.1432 11.2332 11.4151 11.2717 11.6816C11.3102 11.9481 11.4283 12.1967 11.6105 12.395C11.7926 12.5932 12.0305 12.7319 12.2927 12.7927C12.555 12.8536 12.8296 12.8338 13.0805 12.736C13.3314 12.6383 13.5469 12.467 13.6988 12.2447C13.8507 12.0224 13.932 11.7594 13.9319 11.4901C13.9392 11.3223 13.9132 11.1546 13.8556 10.9968C13.798 10.8389 13.7098 10.694 13.5961 10.5703C13.4825 10.4466 13.3455 10.3465 13.1931 10.2758C13.0407 10.205 12.8758 10.1651 12.7079 10.1581Z" fill="white"/>
<path d="M18.54 0.0898438H2.46001C2.13617 0.0906307 1.81565 0.155195 1.51677 0.279851C1.21788 0.404507 0.946469 0.586813 0.718037 0.816359C0.489605 1.04591 0.308622 1.31819 0.185422 1.61768C0.0622225 1.91718 -0.000781573 2.238 7.31767e-06 2.56184V18.7898C-0.000781573 19.1136 0.0622225 19.4345 0.185422 19.734C0.308622 20.0334 0.489605 20.3057 0.718037 20.5353C0.946469 20.7648 1.21788 20.9471 1.51677 21.0718C1.81565 21.1964 2.13617 21.261 2.46001 21.2618H16.068L15.432 19.0418L16.968 20.4698L18.42 21.8098L21 24.0898V2.56184C21.0008 2.238 20.9378 1.91718 20.8146 1.61768C20.6914 1.31819 20.5104 1.04591 20.282 0.816359C20.0535 0.586813 19.7821 0.404507 19.4832 0.279851C19.1844 0.155195 18.8638 0.0906307 18.54 0.0898438ZM13.908 15.7618C13.908 15.7618 13.476 15.2458 13.116 14.7898C13.9858 14.585 14.7552 14.0791 15.288 13.3618C14.8562 13.6492 14.3933 13.8867 13.908 14.0698C13.3498 14.3081 12.7659 14.4812 12.168 14.5858C11.1403 14.775 10.0863 14.771 9.06001 14.5738C8.45887 14.4557 7.86976 14.283 7.30001 14.0578C6.81882 13.874 6.35992 13.6365 5.93201 13.3498C6.44554 14.0522 7.18835 14.553 8.03201 14.7658C7.67201 15.2218 7.23201 15.7658 7.23201 15.7658C6.51919 15.785 5.81258 15.6286 5.17437 15.3106C4.53616 14.9925 3.9859 14.5225 3.57201 13.9418C3.61037 11.5077 4.20124 9.11417 5.30001 6.94184C6.26643 6.18282 7.44466 5.74256 8.67201 5.68184L8.79201 5.82584C7.63452 6.11065 6.55416 6.64741 5.62801 7.39784C5.62801 7.39784 5.89201 7.25384 6.33601 7.04984C7.19835 6.65473 8.11767 6.39824 9.06001 6.28984C9.12587 6.27616 9.19278 6.26813 9.26001 6.26584C10.0641 6.16106 10.8779 6.15301 11.684 6.24184C12.9533 6.38734 14.1817 6.78007 15.3 7.39784C14.4231 6.68404 13.4047 6.16459 12.312 5.87384L12.48 5.68184C13.7074 5.74256 14.8856 6.18282 15.852 6.94184C16.9508 9.11417 17.5416 11.5077 17.58 13.9418C17.1624 14.5212 16.6096 14.9899 15.9697 15.3071C15.3297 15.6242 14.622 15.7803 13.908 15.7618Z" fill="white"/>
</g>
<defs>
<clipPath id="clip0_345_21286">
<rect width="21" height="24" fill="white" transform="translate(0 0.0898438)"/>
</clipPath>
</defs>
</svg>
