<svg width="51" height="51" viewBox="0 0 51 51" fill="none" xmlns="http://www.w3.org/2000/svg">
<path d="M42.5 25.5V46.75H8.5V25.5" stroke="#F1F1F1" stroke-linecap="round" stroke-linejoin="round"/>
<path d="M46.75 14.875H4.25V25.5H46.75V14.875Z" stroke="#F1F1F1" stroke-linecap="round" stroke-linejoin="round"/>
<path d="M25.5 46.75V14.875" stroke="#F1F1F1" stroke-linecap="round" stroke-linejoin="round"/>
<path d="M25.5 14.875H15.9375C14.5285 14.875 13.1773 14.3153 12.181 13.319C11.1847 12.3227 10.625 10.9715 10.625 9.5625C10.625 8.15354 11.1847 6.80228 12.181 5.806C13.1773 4.80971 14.5285 4.25 15.9375 4.25C23.375 4.25 25.5 14.875 25.5 14.875Z" stroke="#F1F1F1" stroke-linecap="round" stroke-linejoin="round"/>
<path d="M25.5 14.875H35.0625C36.4715 14.875 37.8227 14.3153 38.819 13.319C39.8153 12.3227 40.375 10.9715 40.375 9.5625C40.375 8.15354 39.8153 6.80228 38.819 5.806C37.8227 4.80971 36.4715 4.25 35.0625 4.25C27.625 4.25 25.5 14.875 25.5 14.875Z" stroke="#F1F1F1" stroke-linecap="round" stroke-linejoin="round"/>
</svg>
