<svg width="30" height="24" viewBox="0 0 30 24" fill="none" xmlns="http://www.w3.org/2000/svg">
<path d="M4.87679 18.4296C5.06075 18.2559 5.30793 18.1582 5.56662 18.1582H29.5094C29.9462 18.1582 30.1647 18.6576 29.8543 18.9454L25.1232 23.4131C24.9392 23.5868 24.6921 23.6845 24.4334 23.6845H0.490647C0.0537565 23.6845 -0.164689 23.1851 0.145733 22.8974L4.87679 18.4296Z" fill="#FBFBFB" fill-opacity="0.5"/>
<path d="M4.87679 0.271697C5.06075 0.0978109 5.30793 0 5.56662 0H29.5094C29.9462 0 30.1647 0.499922 29.8543 0.787921L25.1232 5.25462C24.9392 5.4285 24.6921 5.52632 24.4334 5.52632H0.490647C0.0537565 5.52632 -0.164689 5.02639 0.145733 4.73839L4.87679 0.271697Z" fill="#FBFBFB" fill-opacity="0.5"/>
<path d="M25.1232 8.99508C24.9392 8.79635 24.6921 8.68457 24.4334 8.68457H0.490647C0.0537565 8.68457 -0.164689 9.25591 0.145733 9.58505L4.87679 14.6898C5.06075 14.8886 5.30793 15.0004 5.56662 15.0004H29.5094C29.9462 15.0004 30.1647 14.429 29.8543 14.0999L25.1232 8.99508Z" fill="#FBFBFB" fill-opacity="0.5"/>
</svg>
