<svg width="19" height="18" viewBox="0 0 19 18" fill="none" xmlns="http://www.w3.org/2000/svg">
<path d="M9.81006 18C12.197 18 14.4862 17.0518 16.174 15.364C17.8618 13.6761 18.8101 11.3869 18.8101 9C18.8101 6.61305 17.8618 4.32387 16.174 2.63604C14.4862 0.948212 12.197 0 9.81006 0C7.42311 0 5.13392 0.948212 3.4461 2.63604C1.75827 4.32387 0.810059 6.61305 0.810059 9C0.810059 11.3869 1.75827 13.6761 3.4461 15.364C5.13392 17.0518 7.42311 18 9.81006 18ZM8.40381 11.8125H9.24756V9.5625H8.40381C7.93623 9.5625 7.56006 9.18633 7.56006 8.71875C7.56006 8.25117 7.93623 7.875 8.40381 7.875H10.0913C10.5589 7.875 10.9351 8.25117 10.9351 8.71875V11.8125H11.2163C11.6839 11.8125 12.0601 12.1887 12.0601 12.6562C12.0601 13.1238 11.6839 13.5 11.2163 13.5H8.40381C7.93623 13.5 7.56006 13.1238 7.56006 12.6562C7.56006 12.1887 7.93623 11.8125 8.40381 11.8125ZM9.81006 4.5C10.1084 4.5 10.3946 4.61853 10.6056 4.8295C10.8165 5.04048 10.9351 5.32663 10.9351 5.625C10.9351 5.92337 10.8165 6.20952 10.6056 6.4205C10.3946 6.63147 10.1084 6.75 9.81006 6.75C9.51169 6.75 9.22554 6.63147 9.01456 6.4205C8.80359 6.20952 8.68506 5.92337 8.68506 5.625C8.68506 5.32663 8.80359 5.04048 9.01456 4.8295C9.22554 4.61853 9.51169 4.5 9.81006 4.5Z" fill="#232324"/>
</svg>
