<svg width="19" height="18" viewBox="0 0 19 18" fill="none" xmlns="http://www.w3.org/2000/svg">
<path d="M6.87988 3.68438C6.87988 3.36094 6.67598 3.07617 6.41582 2.88281C6.00801 2.57695 5.75488 2.15508 5.75488 1.6875C5.75488 0.755859 6.76387 0 8.00488 0C9.2459 0 10.2549 0.755859 10.2549 1.6875C10.2549 2.15508 10.0018 2.57695 9.59395 2.88281C9.33379 3.07617 9.12988 3.36094 9.12988 3.68438C9.12988 4.13438 9.49551 4.5 9.94551 4.5H11.9424C12.874 4.5 13.6299 5.25586 13.6299 6.1875V8.18437C13.6299 8.63438 13.9955 9 14.4455 9C14.7689 9 15.0537 8.79609 15.2471 8.53594C15.5529 8.12813 15.9748 7.875 16.4424 7.875C17.374 7.875 18.1299 8.88398 18.1299 10.125C18.1299 11.366 17.374 12.375 16.4424 12.375C15.9748 12.375 15.5529 12.1219 15.2471 11.7141C15.0537 11.4539 14.7689 11.25 14.4455 11.25C13.9955 11.25 13.6299 11.6156 13.6299 12.0656V16.3125C13.6299 17.2441 12.874 18 11.9424 18H9.94551C9.49551 18 9.12988 17.6344 9.12988 17.1844C9.12988 16.8609 9.33379 16.5762 9.59395 16.3828C10.0018 16.077 10.2549 15.6551 10.2549 15.1875C10.2549 14.2559 9.2459 13.5 8.00488 13.5C6.76387 13.5 5.75488 14.2559 5.75488 15.1875C5.75488 15.6551 6.00801 16.077 6.41582 16.3828C6.67598 16.5762 6.87988 16.8609 6.87988 17.1844C6.87988 17.6344 6.51426 18 6.06426 18H1.81738C0.885742 18 0.129883 17.2441 0.129883 16.3125V12.0656C0.129883 11.6156 0.495508 11.25 0.945508 11.25C1.26895 11.25 1.55371 11.4539 1.74707 11.7141C2.05293 12.1219 2.4748 12.375 2.94238 12.375C3.87402 12.375 4.62988 11.366 4.62988 10.125C4.62988 8.88398 3.87402 7.875 2.94238 7.875C2.4748 7.875 2.05293 8.12813 1.74707 8.53594C1.55371 8.79609 1.26895 9 0.945508 9C0.495508 9 0.129883 8.63438 0.129883 8.18437V6.1875C0.129883 5.25586 0.885742 4.5 1.81738 4.5H6.06426C6.51426 4.5 6.87988 4.13438 6.87988 3.68438Z" fill="#232324"/>
</svg>
