<svg width="24" height="18" viewBox="0 0 24 18" fill="none" xmlns="http://www.w3.org/2000/svg">
<path d="M19.4205 2.45519C19.4148 2.44406 19.4053 2.43534 19.3937 2.43058C18.0534 1.81565 16.639 1.37716 15.1859 1.12608C15.1727 1.12362 15.1591 1.12539 15.147 1.13114C15.1348 1.13688 15.1248 1.1463 15.1183 1.15807C14.9257 1.50762 14.7509 1.86667 14.5945 2.23385C13.0282 1.99608 11.4349 1.99608 9.8686 2.23385C9.71116 1.86574 9.53353 1.5066 9.33651 1.15807C9.32975 1.14656 9.31969 1.13735 9.30762 1.13165C9.29556 1.12594 9.28205 1.124 9.26887 1.12608C7.81564 1.37663 6.40118 1.81516 5.06109 2.43062C5.04962 2.43548 5.03994 2.44379 5.03339 2.45438C2.35346 6.4565 1.61933 10.3602 1.97947 14.2156C1.98048 14.225 1.98338 14.2342 1.988 14.2425C1.99262 14.2508 1.99887 14.2581 2.00636 14.2639C3.56686 15.4194 5.31229 16.3013 7.16818 16.8721C7.18125 16.8761 7.1952 16.8759 7.20817 16.8716C7.22114 16.8674 7.23249 16.8593 7.24071 16.8484C7.63931 16.306 7.9925 15.7317 8.29669 15.1313C8.30087 15.123 8.30326 15.114 8.3037 15.1048C8.30413 15.0955 8.30261 15.0863 8.29922 15.0777C8.29584 15.0691 8.29067 15.0614 8.28406 15.0549C8.27745 15.0484 8.26955 15.0435 8.26087 15.0403C7.70391 14.8272 7.16471 14.5703 6.64832 14.272C6.63894 14.2665 6.63106 14.2588 6.62538 14.2495C6.6197 14.2402 6.6164 14.2297 6.61575 14.2188C6.61511 14.2079 6.61715 14.1971 6.6217 14.1872C6.62624 14.1773 6.63315 14.1687 6.64182 14.1621C6.75017 14.0809 6.85859 13.9965 6.96206 13.9112C6.97125 13.9036 6.98237 13.8988 6.99417 13.8972C7.00598 13.8956 7.01799 13.8973 7.02885 13.9022C10.4119 15.4462 14.0745 15.4462 17.4175 13.9022C17.4284 13.897 17.4406 13.8951 17.4525 13.8965C17.4645 13.898 17.4758 13.9028 17.4852 13.9104C17.5887 13.9957 17.6971 14.0809 17.8062 14.1621C17.8149 14.1686 17.8219 14.1772 17.8265 14.187C17.8311 14.1969 17.8333 14.2077 17.8327 14.2186C17.8321 14.2295 17.8289 14.24 17.8233 14.2493C17.8177 14.2586 17.8099 14.2664 17.8005 14.272C17.2853 14.5728 16.7456 14.8295 16.1872 15.0395C16.1785 15.0428 16.1706 15.0479 16.1641 15.0544C16.1575 15.061 16.1524 15.0688 16.1491 15.0775C16.1458 15.0862 16.1443 15.0954 16.1448 15.1047C16.1453 15.114 16.1478 15.123 16.152 15.1313C16.4613 15.7284 16.814 16.3019 17.2072 16.8474C17.2152 16.8586 17.2265 16.867 17.2395 16.8714C17.2525 16.8758 17.2666 16.8761 17.2797 16.872C19.139 16.3031 20.8874 15.4211 22.4499 14.2639C22.4575 14.2584 22.4638 14.2513 22.4685 14.2431C22.4731 14.2349 22.476 14.2258 22.4768 14.2164C22.9079 9.75918 21.755 5.88746 19.4205 2.45519ZM8.80192 11.8681C7.78338 11.8681 6.94413 10.9334 6.94413 9.78545C6.94413 8.63753 7.7671 7.70276 8.80192 7.70276C9.84483 7.70276 10.676 8.64565 10.6597 9.78538C10.6597 10.9334 9.83668 11.8681 8.80192 11.8681ZM15.6708 11.8681C14.6522 11.8681 13.813 10.9334 13.813 9.78545C13.813 8.63753 14.636 7.70276 15.6708 7.70276C16.7137 7.70276 17.5448 8.64565 17.5285 9.78538C17.5285 10.9334 16.7137 11.8681 15.6708 11.8681Z" fill="#232324"/>
</svg>
