<svg width="18" height="19" viewBox="0 0 18 19" fill="none" xmlns="http://www.w3.org/2000/svg">
<path d="M15.7503 9.49982C15.7503 9.64901 15.6911 9.79208 15.5856 9.89757C15.4801 10.0031 15.337 10.0623 15.1878 10.0623H9.00031C8.85113 10.0623 8.70805 10.0031 8.60257 9.89757C8.49708 9.79208 8.43781 9.64901 8.43781 9.49982C8.43781 9.35064 8.49708 9.20757 8.60257 9.10208C8.70805 8.99659 8.85113 8.93732 9.00031 8.93732H15.1878C15.337 8.93732 15.4801 8.99659 15.5856 9.10208C15.6911 9.20757 15.7503 9.35064 15.7503 9.49982ZM9.00031 5.56232H15.1878C15.337 5.56232 15.4801 5.50306 15.5856 5.39757C15.6911 5.29208 15.7503 5.14901 15.7503 4.99982C15.7503 4.85064 15.6911 4.70757 15.5856 4.60208C15.4801 4.49659 15.337 4.43732 15.1878 4.43732H9.00031C8.85113 4.43732 8.70805 4.49659 8.60257 4.60208C8.49708 4.70757 8.43781 4.85064 8.43781 4.99982C8.43781 5.14901 8.49708 5.29208 8.60257 5.39757C8.70805 5.50306 8.85113 5.56232 9.00031 5.56232ZM15.1878 13.4373H9.00031C8.85113 13.4373 8.70805 13.4966 8.60257 13.6021C8.49708 13.7076 8.43781 13.8506 8.43781 13.9998C8.43781 14.149 8.49708 14.2921 8.60257 14.3976C8.70805 14.5031 8.85113 14.5623 9.00031 14.5623H15.1878C15.337 14.5623 15.4801 14.5031 15.5856 14.3976C15.6911 14.2921 15.7503 14.149 15.7503 13.9998C15.7503 13.8506 15.6911 13.7076 15.5856 13.6021C15.4801 13.4966 15.337 13.4373 15.1878 13.4373ZM5.78984 3.47686L3.93781 5.32959L3.21078 4.60186C3.10523 4.49631 2.96208 4.43701 2.81281 4.43701C2.66355 4.43701 2.52039 4.49631 2.41484 4.60186C2.3093 4.7074 2.25 4.85056 2.25 4.99982C2.25 5.14909 2.3093 5.29225 2.41484 5.39779L3.53984 6.52279C3.59209 6.57509 3.65412 6.61658 3.72241 6.64489C3.7907 6.6732 3.86389 6.68777 3.93781 6.68777C4.01173 6.68777 4.08493 6.6732 4.15322 6.64489C4.2215 6.61658 4.28354 6.57509 4.33578 6.52279L6.58578 4.27279C6.69133 4.16725 6.75063 4.02409 6.75063 3.87482C6.75063 3.72556 6.69133 3.5824 6.58578 3.47686C6.48023 3.37131 6.33708 3.31201 6.18781 3.31201C6.03855 3.31201 5.89539 3.37131 5.78984 3.47686ZM5.78984 7.97686L3.93781 9.82959L3.21078 9.10186C3.10523 8.99631 2.96208 8.93701 2.81281 8.93701C2.66355 8.93701 2.52039 8.99631 2.41484 9.10186C2.3093 9.2074 2.25 9.35056 2.25 9.49982C2.25 9.57373 2.26456 9.64692 2.29284 9.7152C2.32113 9.78349 2.36258 9.84553 2.41484 9.89779L3.53984 11.0228C3.59209 11.0751 3.65412 11.1166 3.72241 11.1449C3.7907 11.1732 3.86389 11.1878 3.93781 11.1878C4.01173 11.1878 4.08493 11.1732 4.15322 11.1449C4.2215 11.1166 4.28354 11.0751 4.33578 11.0228L6.58578 8.77279C6.69133 8.66725 6.75063 8.52409 6.75063 8.37482C6.75063 8.22556 6.69133 8.0824 6.58578 7.97686C6.48023 7.87131 6.33708 7.81201 6.18781 7.81201C6.03855 7.81201 5.89539 7.87131 5.78984 7.97686ZM5.78984 12.4769L3.93781 14.3296L3.21078 13.6019C3.15852 13.5496 3.09648 13.5081 3.02819 13.4799C2.95991 13.4516 2.88672 13.437 2.81281 13.437C2.7389 13.437 2.66572 13.4516 2.59743 13.4799C2.52915 13.5081 2.46711 13.5496 2.41484 13.6019C2.36258 13.6541 2.32113 13.7162 2.29284 13.7844C2.26456 13.8527 2.25 13.9259 2.25 13.9998C2.25 14.0737 2.26456 14.1469 2.29284 14.2152C2.32113 14.2835 2.36258 14.3455 2.41484 14.3978L3.53984 15.5228C3.59209 15.5751 3.65412 15.6166 3.72241 15.6449C3.7907 15.6732 3.86389 15.6878 3.93781 15.6878C4.01173 15.6878 4.08493 15.6732 4.15322 15.6449C4.2215 15.6166 4.28354 15.5751 4.33578 15.5228L6.58578 13.2728C6.69133 13.1672 6.75063 13.0241 6.75063 12.8748C6.75063 12.7256 6.69133 12.5824 6.58578 12.4769C6.48023 12.3713 6.33708 12.312 6.18781 12.312C6.03855 12.312 5.89539 12.3713 5.78984 12.4769Z" fill="#B8B9BD"/>
</svg>
