<svg width="13" height="14" viewBox="0 0 13 14" fill="none" xmlns="http://www.w3.org/2000/svg">
<path d="M1.70033 1.75H10.7003C11.0983 1.75 11.4503 2.102 11.4503 2.5C11.4503 2.922 11.0983 3.25 10.7003 3.25H2.07533C1.97667 3.25253 1.88275 3.29285 1.81297 3.36264C1.74318 3.43242 1.70286 3.52634 1.70033 3.625C1.70033 3.835 1.86433 4 2.07533 4H10.7003C11.5203 4 12.2003 4.68 12.2003 5.5V10.75C12.2003 11.594 11.5203 12.25 10.7003 12.25H1.70033C1.5026 12.2527 1.30634 12.2157 1.12314 12.1413C0.939935 12.0669 0.773505 11.9565 0.633677 11.8167C0.49385 11.6768 0.383462 11.5104 0.309032 11.3272C0.234603 11.144 0.197642 10.9477 0.200332 10.75V3.25C0.200332 2.43 0.856332 1.75 1.70033 1.75ZM9.95033 7.375C9.75183 7.37631 9.56182 7.45575 9.42145 7.59612C9.28108 7.73649 9.20164 7.92649 9.20033 8.125C9.20033 8.547 9.52833 8.875 9.95033 8.875C10.3483 8.875 10.7003 8.547 10.7003 8.125C10.695 7.92776 10.6143 7.74006 10.4748 7.60054C10.3353 7.46102 10.1476 7.3803 9.95033 7.375Z" fill="white"/>
</svg>
