<svg width="24" height="25" viewBox="0 0 24 25" fill="none" xmlns="http://www.w3.org/2000/svg">
<g clip-path="url(#clip0_345_21290)">
<path d="M23.9532 0.617442C23.9338 0.528822 23.8912 0.446914 23.8299 0.380009C23.7687 0.313104 23.6908 0.263577 23.6042 0.236442C23.2889 0.173993 22.9626 0.197128 22.6592 0.303443C22.6592 0.303443 1.63021 7.86244 0.429212 8.69944C0.171212 8.87944 0.084212 8.98444 0.041212 9.10744C-0.166788 9.70744 0.480212 9.96544 0.480212 9.96544L5.90021 11.7314C5.99186 11.7479 6.08609 11.7424 6.17521 11.7154C7.40721 10.9364 18.5752 3.88144 19.2242 3.64444C19.3242 3.61444 19.4012 3.64444 19.3812 3.71944C19.1232 4.62444 9.47221 13.1974 9.41921 13.2494C9.39339 13.2706 9.37328 13.2978 9.36071 13.3288C9.34813 13.3597 9.34349 13.3932 9.34721 13.4264L8.84121 18.7184C8.84121 18.7184 8.62921 20.3654 10.2762 18.7184C11.4442 17.5494 12.5652 16.5814 13.1252 16.1104C14.9892 17.3974 16.9942 18.8204 17.8592 19.5654C18.0047 19.7062 18.1771 19.8163 18.3661 19.889C18.5551 19.9617 18.7568 19.9955 18.9592 19.9884C19.2084 19.958 19.4425 19.8525 19.6302 19.6858C19.818 19.5192 19.9505 19.2993 20.0102 19.0554C20.0102 19.0554 23.8402 3.63244 23.9682 1.56644C23.9812 1.36644 23.9982 1.23444 24.0002 1.09544C24.0064 0.934711 23.9906 0.773884 23.9532 0.617442Z" fill="white"/>
</g>
<defs>
<clipPath id="clip0_345_21290">
<rect width="24" height="24" fill="white" transform="translate(0 0.0898438)"/>
</clipPath>
</defs>
</svg>
