<svg width="24" height="21" viewBox="0 0 24 21" fill="none" xmlns="http://www.w3.org/2000/svg">
<g clip-path="url(#clip0_345_21283)">
<path d="M24 2.68965C23.1 3.08965 22.2 3.38965 21.2 3.48965C22.2 2.88965 23 1.88965 23.4 0.789648C22.4 1.38965 21.4 1.78965 20.3 1.98965C19.4 0.989649 18.1 0.389648 16.7 0.389648C14 0.389648 11.8 2.58965 11.8 5.28965C11.8 5.68965 11.8 6.08965 11.9 6.38965C7.7 6.18965 4.1 4.18965 1.7 1.18965C1.2 1.98965 1 2.78965 1 3.68965C1 5.38965 1.9 6.88965 3.2 7.78965C2.4 7.78965 1.6 7.58965 1 7.18965C1 7.18965 1 7.18965 1 7.28965C1 9.68965 2.7 11.6896 4.9 12.0896C4.5 12.1896 4.1 12.2896 3.6 12.2896C3.3 12.2896 3 12.2896 2.7 12.1896C3.3 14.1896 5.1 15.5896 7.3 15.5896C5.6 16.8896 3.5 17.6896 1.2 17.6896C0.8 17.6896 0.4 17.6896 0 17.5896C2.2 18.9896 4.8 19.7897 7.5 19.7897C16.6 19.7897 21.5 12.2896 21.5 5.78965C21.5 5.58965 21.5 5.38965 21.5 5.18965C22.5 4.48965 23.3 3.58965 24 2.68965Z" fill="white"/>
</g>
<defs>
<clipPath id="clip0_345_21283">
<rect width="24" height="20" fill="white" transform="translate(0 0.0898438)"/>
</clipPath>
</defs>
</svg>
