<svg width="51" height="51" viewBox="0 0 51 51" fill="none" xmlns="http://www.w3.org/2000/svg">
<path d="M46.3331 20.513C46.2015 20.1319 45.9622 19.7972 45.6442 19.5494C45.3262 19.3017 44.9431 19.1515 44.5414 19.1171L32.6872 17.388L27.3747 6.61712C27.2042 6.26489 26.9378 5.96784 26.6062 5.75999C26.2746 5.55213 25.8911 5.44189 25.4997 5.44189C25.1084 5.44189 24.7249 5.55213 24.3933 5.75999C24.0617 5.96784 23.7953 6.26489 23.6247 6.61712L18.3123 17.3671L6.45808 19.1171C6.0725 19.1719 5.71001 19.3337 5.41173 19.5841C5.11345 19.8345 4.89133 20.1635 4.77058 20.5338C4.66005 20.8956 4.65013 21.2807 4.74189 21.6477C4.83365 22.0148 5.02362 22.3499 5.29142 22.6171L13.8956 30.9505L11.8122 42.7838C11.7379 43.1744 11.7768 43.5781 11.9245 43.9472C12.0721 44.3164 12.3224 44.6356 12.6456 44.8671C12.9606 45.0923 13.3322 45.2253 13.7186 45.2511C14.105 45.2768 14.4909 45.1944 14.8331 45.013L25.4997 39.4505L36.1247 45.0338C36.4171 45.1987 36.7474 45.2849 37.0831 45.2838C37.5244 45.2854 37.9548 45.1468 38.3122 44.888C38.6355 44.6564 38.8857 44.3372 39.0333 43.9681C39.181 43.5989 39.22 43.1952 39.1456 42.8046L37.0622 30.9713L45.6664 22.638C45.9672 22.3831 46.1895 22.0482 46.3075 21.672C46.4255 21.2959 46.4344 20.8939 46.3331 20.513ZM33.5206 28.8463C33.2763 29.0826 33.0935 29.3751 32.9882 29.6983C32.8828 30.0215 32.8582 30.3656 32.9164 30.7005L34.4164 39.4296L26.5831 35.263C26.2817 35.1025 25.9454 35.0185 25.6039 35.0185C25.2624 35.0185 24.9262 35.1025 24.6247 35.263L16.7914 39.4296L18.2914 30.7005C18.3496 30.3656 18.325 30.0215 18.2197 29.6983C18.1144 29.3751 17.9316 29.0826 17.6872 28.8463L11.4372 22.5963L20.2081 21.3255C20.5456 21.2785 20.8664 21.1495 21.1425 20.9497C21.4185 20.75 21.6413 20.4855 21.7914 20.1796L25.4997 12.2421L29.4164 20.2005C29.5665 20.5064 29.7893 20.7708 30.0654 20.9706C30.3414 21.1703 30.6623 21.2993 30.9997 21.3463L39.7706 22.6171L33.5206 28.8463Z" fill="#F1F1F1"/>
</svg>
